<?xml version="1.0" encoding="UTF-8"?>
<svg xmlns="http://www.w3.org/2000/svg" style="stroke-dasharray:none; shape-rendering:auto; font-family:'Arial'; text-rendering:auto; fill-opacity:1; color-interpolation:auto; color-rendering:auto; font-size:12; fill:black; stroke:black; image-rendering:auto; stroke-miterlimit:10; stroke-linecap:square; stroke-linejoin:miter; font-style:normal; stroke-width:1; stroke-dashoffset:0; font-weight:normal; stroke-opacity:1;" contentScriptType="text/ecmascript" preserveAspectRatio="xMidYMid meet" zoomAndPan="magnify" version="1.0" contentStyleType="text/css" xml:xlink="http://www.w3.org/1999/xlink" width="971" height="481"><rect x="10" y="10" width="961" height="471" ry="0" rx="0" style="stroke:#000000; fill:#FFFFFF" /><rect x="40" y="324" width="931" height="157" ry="0" rx="0" style="stroke:#000000; fill:#82B0B7" /><g componentSequence="11"><text x="-402" y="46" transform="rotate(270)" text-anchor="middle" style="font-weight:bold;font-size:10px;stroke:none; fill:#434343"><tspan dy="14" x="-402">Gestor da Area</tspan></text></g><rect x="40" y="167" width="931" height="157" ry="0" rx="0" style="stroke:#000000; fill:#C0C0C0" /><g componentSequence="3"><text x="-245" y="46" transform="rotate(270)" text-anchor="middle" style="font-weight:bold;font-size:10px;stroke:none; fill:#434343"><tspan dy="14" x="-245">RH</tspan></text></g><rect x="40" y="10" width="931" height="157" ry="0" rx="0" style="stroke:#000000; fill:#9F9F9F" /><g componentSequence="2"><text x="-88" y="46" transform="rotate(270)" text-anchor="middle" style="font-weight:bold;font-size:10px;stroke:none; fill:#434343"><tspan dy="14" x="-88">Solicitante</tspan></text></g><g componentSequence="1"><text x="-245" y="16" transform="rotate(270)" text-anchor="middle" style="font-weight:bold;font-size:10px;stroke:none; fill:#434343"><tspan dy="14" x="-245">SOLICITACAO REEMBOLSO</tspan></text></g><g sequence="4"><ellipse cx="167" cy="99" rx="17" ry="17" stroke-width="1" style="fill:url(#linearGradient66FF6696FF96B6FFB6_656200386);" stroke="336633" /></g><g sequence="5"><rect x="240" y="220" width="106" height="66" ry="5" rx="5" style="fill:url(#linearGradientF8FBFEEDF5FCDEEDFAD4E7F8E2E5E9_702228561);" stroke="191970" /></g><g componentSequence="5"><text x="293" y="235" text-anchor="middle" style="font-weight:bold;font-size:10px;stroke:none; fill:#333399"><tspan dy="14" x="293">Analisar</tspan><tspan dy="14" x="293">Reembolso</tspan></text></g><rect x="210" y="20" width="105" height="64" ry="5" rx="5" style="stroke:none; fill:#FFFFE0" /><g componentSequence="7"><text x="220" y="43" text-anchor="left" style="font-weight:bold;font-size:10px;stroke:none; fill:#000000"><tspan dy="14" x="220">Solicitante</tspan><tspan dy="14" x="220">Preenche</tspan><tspan dy="14" x="220">formulario</tspan></text></g><path style="fill:none; stroke-width:1; stroke:#000000;" d="M230.0 20.0 L210.0 20.0 L210.0 84.0 L230.0 84.0" /><g sequence="9"><polygon points=" 460 240 490 210 520 240 490 270 460 240" style="fill:url(#linearGradientFAFBFCFFFFCC_769964466);" stroke="000000" /></g><g componentSequence="9"><text x="490" y="271" text-anchor="middle" style="font-weight:bold;font-size:10px;stroke:none; fill:#333399"><tspan dy="14" x="490">Exclusive</tspan></text></g><g sequence="13"><rect x="640" y="339" width="106" height="66" ry="5" rx="5" style="fill:url(#linearGradientF8FBFEEDF5FCDEEDFAD4E7F8E2E5E9_1759912554);" stroke="191970" /></g><g componentSequence="13"><text x="693" y="354" text-anchor="middle" style="font-weight:bold;font-size:10px;stroke:none; fill:#333399"><tspan dy="14" x="693">Aprovar</tspan><tspan dy="14" x="693">Reembolso</tspan></text></g><g sequence="15"><polygon points=" 400 410 430 380 460 410 430 440 400 410" style="fill:url(#linearGradientFAFBFCFFFFCC_699234166);" stroke="000000" /></g><g componentSequence="15"><text x="430" y="441" text-anchor="middle" style="font-weight:bold;font-size:10px;stroke:none; fill:#333399"><tspan dy="14" x="430">Exclusive</tspan></text></g><g sequence="20"><rect x="196" y="383" width="106" height="79" ry="5" rx="5" style="fill:url(#linearGradientF8FBFEEDF5FCDEEDFAD4E7F8E2E5E9_1497648050);" stroke="191970" /></g><g componentSequence="20"><text x="249" y="398" text-anchor="middle" style="font-weight:bold;font-size:10px;stroke:none; fill:#333399"><tspan dy="14" x="249">Informar</tspan><tspan dy="14" x="249">Financeiro (Sub)</tspan></text></g><g sequence="24"><ellipse cx="327" cy="367" rx="17" ry="17" stroke-width="3" style="fill:url(#linearGradientFF6666FF9696FFB6B6_1373978625);" stroke="993333" /></g><g sequence="24"><polygon points=" 318 363 323 358 328 363 333 358 338 363 333 368 338 373 333 378 328 373 323 378 318 373 323 368" style="stroke:none; fill:#993333" /></g><g sequence="25"><ellipse cx="132" cy="422" rx="17" ry="17" stroke-width="3" style="fill:url(#linearGradientFF6666FF9696FFB6B6_147447077);" stroke="993333" /></g><g componentSequence="6"><text x="177" y="221" style="font-size:10px;font-weight:none;stroke:none; fill:#333399" text-anchor="left" /></g><g componentSequence="8"><text x="183" y="51" style="font-size:10px;font-weight:none;stroke:none; fill:#333399" text-anchor="left" /></g><g componentSequence="10"><text x="413" y="252" style="font-size:10px;font-weight:none;stroke:none; fill:#333399" text-anchor="left" /></g><g componentSequence="12"><text x="332" y="173" style="font-size:10px;font-weight:none;stroke:none; fill:#333399" text-anchor="left" /></g><g componentSequence="14"><text x="537" y="371" style="font-size:10px;font-weight:none;stroke:none; fill:#333399" text-anchor="left" /></g><g componentSequence="16"><text x="595" y="422" style="font-size:10px;font-weight:none;stroke:none; fill:#333399" text-anchor="left" /></g><g componentSequence="21"><text x="361" y="422" style="font-size:10px;font-weight:none;stroke:none; fill:#333399" text-anchor="left" /></g><g componentSequence="23"><text x="403" y="367" style="font-size:10px;font-weight:none;stroke:none; fill:#333399" text-anchor="left" /></g><g componentSequence="26"><text x="183" y="422" style="font-size:10px;font-weight:none;stroke:none; fill:#333399" text-anchor="left" /></g><path style="fill:none; stroke:#000000;stroke-width:1" d="M167.0 117.0 L167.0 252.0 L239.0 252.0" /><polygon style="fill:#000000; stroke:#000000;" points=" 229 247 239 252 229 257 231 252" /><path style="fill:none; stroke:#000000;stroke-dasharray:2" d="M209.0 51.0 L167.0 51.0 L167.0 81.0" /><path style="fill:none; stroke:#000000;stroke-width:1" d="M459.0 238.0 L183.0 106.0" /><polygon style="fill:#000000; stroke:#000000;" points=" 190 115 183 106 194 106 190 109" /><path style="fill:none; stroke:#000000;stroke-width:1" d="M346.0 252.0 L459.0 252.0" /><polygon style="fill:#000000; stroke:#000000;" points=" 449 247 459 252 449 257 451 252" /><path style="fill:none; stroke:#000000;stroke-width:1" d="M490.0 295.0 L490.0 371.0 L639.0 371.0" /><polygon style="fill:#000000; stroke:#000000;" points=" 629 366 639 371 629 376 631 371" /><path style="fill:none; stroke:#000000;stroke-width:1" d="M693.0 405.0 L693.0 422.0 L460.0 422.0" /><polygon style="fill:#000000; stroke:#000000;" points=" 470 427 460 422 470 417 468 422" /><path style="fill:none; stroke:#000000;stroke-width:1" d="M399.0 422.0 L302.0 422.0" /><polygon style="fill:#000000; stroke:#000000;" points=" 312 427 302 422 312 417 310 422" /><path style="fill:none; stroke:#000000;stroke-width:1" d="M428.0 379.0 L428.0 367.0 L345.0 367.0" /><polygon style="fill:#000000; stroke:#000000;" points=" 355 372 345 367 355 362 353 367" /><path style="fill:none; stroke:#000000;stroke-width:1" d="M195.0 422.0 L150.0 422.0" /><polygon style="fill:#000000; stroke:#000000;" points=" 160 427 150 422 160 417 158 422" /><defs><linearGradient xmlns:xlink="http://www.w3.org/1999/xlink" xlink:href="#linearGradient66FF6696FF96B6FFB6" id="linearGradient66FF6696FF96B6FFB6_656200386" x1="0" y1="82.0" x2="0" y2="117.0" gradientUnits="userSpaceOnUse" xlink:type="simple" xlink:actuate="onLoad" xlink:show="other" /><linearGradient id="linearGradient66FF6696FF96B6FFB6"><stop style="stop-color:#66FF66;stop-opacity:1;" offset="0.0" id="stop66FF66" /><stop style="stop-color:#96FF96;stop-opacity:1;" offset="0.5" id="stop96FF96" /><stop style="stop-color:#B6FFB6;stop-opacity:1;" offset="1.0" id="stopB6FFB6" /></linearGradient><linearGradient xmlns:xlink="http://www.w3.org/1999/xlink" xlink:href="#linearGradientF8FBFEEDF5FCDEEDFAD4E7F8E2E5E9" id="linearGradientF8FBFEEDF5FCDEEDFAD4E7F8E2E5E9_702228561" x1="0" y1="220.0" x2="0" y2="326.0" gradientUnits="userSpaceOnUse" xlink:type="simple" xlink:actuate="onLoad" xlink:show="other" /><linearGradient id="linearGradientF8FBFEEDF5FCDEEDFAD4E7F8E2E5E9"><stop style="stop-color:#F8FBFE;stop-opacity:1;" offset="0.0" id="stopF8FBFE" /><stop style="stop-color:#EDF5FC;stop-opacity:1;" offset="0.25" id="stopEDF5FC" /><stop style="stop-color:#DEEDFA;stop-opacity:1;" offset="0.5" id="stopDEEDFA" /><stop style="stop-color:#D4E7F8;stop-opacity:1;" offset="0.75" id="stopD4E7F8" /><stop style="stop-color:#E2E5E9;stop-opacity:1;" offset="1.0" id="stopE2E5E9" /></linearGradient><linearGradient xmlns:xlink="http://www.w3.org/1999/xlink" xlink:href="#linearGradientFAFBFCFFFFCC" id="linearGradientFAFBFCFFFFCC_769964466" x1="0" y1="210.0" x2="0" y2="270.0" gradientUnits="userSpaceOnUse" xlink:type="simple" xlink:actuate="onLoad" xlink:show="other" /><linearGradient id="linearGradientFAFBFCFFFFCC"><stop style="stop-color:#FAFBFC;stop-opacity:1;" offset="0.0" id="stopFAFBFC" /><stop style="stop-color:#FFFFCC;stop-opacity:1;" offset="1.0" id="stopFFFFCC" /></linearGradient><linearGradient xmlns:xlink="http://www.w3.org/1999/xlink" xlink:href="#linearGradientF8FBFEEDF5FCDEEDFAD4E7F8E2E5E9" id="linearGradientF8FBFEEDF5FCDEEDFAD4E7F8E2E5E9_1759912554" x1="0" y1="339.0" x2="0" y2="445.0" gradientUnits="userSpaceOnUse" xlink:type="simple" xlink:actuate="onLoad" xlink:show="other" /><linearGradient xmlns:xlink="http://www.w3.org/1999/xlink" xlink:href="#linearGradientFAFBFCFFFFCC" id="linearGradientFAFBFCFFFFCC_699234166" x1="0" y1="380.0" x2="0" y2="440.0" gradientUnits="userSpaceOnUse" xlink:type="simple" xlink:actuate="onLoad" xlink:show="other" /><linearGradient xmlns:xlink="http://www.w3.org/1999/xlink" xlink:href="#linearGradientF8FBFEEDF5FCDEEDFAD4E7F8E2E5E9" id="linearGradientF8FBFEEDF5FCDEEDFAD4E7F8E2E5E9_1497648050" x1="0" y1="383.0" x2="0" y2="489.0" gradientUnits="userSpaceOnUse" xlink:type="simple" xlink:actuate="onLoad" xlink:show="other" /><linearGradient xmlns:xlink="http://www.w3.org/1999/xlink" xlink:href="#linearGradientFF6666FF9696FFB6B6" id="linearGradientFF6666FF9696FFB6B6_1373978625" x1="0" y1="350.0" x2="0" y2="385.0" gradientUnits="userSpaceOnUse" xlink:type="simple" xlink:actuate="onLoad" xlink:show="other" /><linearGradient id="linearGradientFF6666FF9696FFB6B6"><stop style="stop-color:#FF6666;stop-opacity:1;" offset="0.0" id="stopFF6666" /><stop style="stop-color:#FF9696;stop-opacity:1;" offset="0.5" id="stopFF9696" /><stop style="stop-color:#FFB6B6;stop-opacity:1;" offset="1.0" id="stopFFB6B6" /></linearGradient><linearGradient xmlns:xlink="http://www.w3.org/1999/xlink" xlink:href="#linearGradientFF6666FF9696FFB6B6" id="linearGradientFF6666FF9696FFB6B6_147447077" x1="0" y1="405.0" x2="0" y2="440.0" gradientUnits="userSpaceOnUse" xlink:type="simple" xlink:actuate="onLoad" xlink:show="other" /></defs></svg>
